<svg id="visual" viewBox="0 0 960 540" width="960" height="540" xmlns="http://www.w3.org/2000/svg" xmlns:xlink="http://www.w3.org/1999/xlink" version="1.1"><path d="M0 44L17.8 42.2C35.7 40.3 71.3 36.7 106.8 34.8C142.3 33 177.7 33 213.2 34C248.7 35 284.3 37 320 37C355.7 37 391.3 35 426.8 33.2C462.3 31.3 497.7 29.7 533.2 34.2C568.7 38.7 604.3 49.3 640 53.8C675.7 58.3 711.3 56.7 746.8 50.5C782.3 44.3 817.7 33.7 853.2 31.8C888.7 30 924.3 37 942.2 40.5L960 44L960 0L942.2 0C924.3 0 888.7 0 853.2 0C817.7 0 782.3 0 746.8 0C711.3 0 675.7 0 640 0C604.3 0 568.7 0 533.2 0C497.7 0 462.3 0 426.8 0C391.3 0 355.7 0 320 0C284.3 0 248.7 0 213.2 0C177.7 0 142.3 0 106.8 0C71.3 0 35.7 0 17.8 0L0 0Z" fill="#c79286"></path><path d="M0 147L17.8 143.3C35.7 139.7 71.3 132.3 106.8 127.8C142.3 123.3 177.7 121.7 213.2 119C248.7 116.3 284.3 112.7 320 115.3C355.7 118 391.3 127 426.8 144.2C462.3 161.3 497.7 186.7 533.2 201C568.7 215.3 604.3 218.7 640 209.7C675.7 200.7 711.3 179.3 746.8 174C782.3 168.7 817.7 179.3 853.2 173.8C888.7 168.3 924.3 146.7 942.2 135.8L960 125L960 42L942.2 38.5C924.3 35 888.7 28 853.2 29.8C817.7 31.7 782.3 42.3 746.8 48.5C711.3 54.7 675.7 56.3 640 51.8C604.3 47.3 568.7 36.7 533.2 32.2C497.7 27.7 462.3 29.3 426.8 31.2C391.3 33 355.7 35 320 35C284.3 35 248.7 33 213.2 32C177.7 31 142.3 31 106.8 32.8C71.3 34.7 35.7 38.3 17.8 40.2L0 42Z" fill="#b68277"></path><path d="M0 174L17.8 171.3C35.7 168.7 71.3 163.3 106.8 166.8C142.3 170.3 177.7 182.7 213.2 186.2C248.7 189.7 284.3 184.3 320 179C355.7 173.7 391.3 168.3 426.8 180C462.3 191.7 497.7 220.3 533.2 234.7C568.7 249 604.3 249 640 243.7C675.7 238.3 711.3 227.7 746.8 229.5C782.3 231.3 817.7 245.7 853.2 238.5C888.7 231.3 924.3 202.7 942.2 188.3L960 174L960 123L942.2 133.8C924.3 144.7 888.7 166.3 853.2 171.8C817.7 177.3 782.3 166.7 746.8 172C711.3 177.3 675.7 198.7 640 207.7C604.3 216.7 568.7 213.3 533.2 199C497.7 184.7 462.3 159.3 426.8 142.2C391.3 125 355.7 116 320 113.3C284.3 110.7 248.7 114.3 213.2 117C177.7 119.7 142.3 121.3 106.8 125.8C71.3 130.3 35.7 137.7 17.8 141.3L0 145Z" fill="#a57368"></path><path d="M0 239L17.8 230.8C35.7 222.7 71.3 206.3 106.8 205.3C142.3 204.3 177.7 218.7 213.2 223.2C248.7 227.7 284.3 222.3 320 215.2C355.7 208 391.3 199 426.8 212.5C462.3 226 497.7 262 533.2 280C568.7 298 604.3 298 640 293.5C675.7 289 711.3 280 746.8 279.2C782.3 278.3 817.7 285.7 853.2 273C888.7 260.3 924.3 227.7 942.2 211.3L960 195L960 172L942.2 186.3C924.3 200.7 888.7 229.3 853.2 236.5C817.7 243.7 782.3 229.3 746.8 227.5C711.3 225.7 675.7 236.3 640 241.7C604.3 247 568.7 247 533.2 232.7C497.7 218.3 462.3 189.7 426.8 178C391.3 166.3 355.7 171.7 320 177C284.3 182.3 248.7 187.7 213.2 184.2C177.7 180.7 142.3 168.3 106.8 164.8C71.3 161.3 35.7 166.7 17.8 169.3L0 172Z" fill="#956459"></path><path d="M0 428L17.8 414.5C35.7 401 71.3 374 106.8 366.7C142.3 359.3 177.7 371.7 213.2 386.8C248.7 402 284.3 420 320 428.2C355.7 436.3 391.3 434.7 426.8 428.5C462.3 422.3 497.7 411.7 533.2 404.5C568.7 397.3 604.3 393.7 640 397.2C675.7 400.7 711.3 411.3 746.8 412.2C782.3 413 817.7 404 853.2 390.5C888.7 377 924.3 359 942.2 350L960 341L960 193L942.2 209.3C924.3 225.7 888.7 258.3 853.2 271C817.7 283.7 782.3 276.3 746.8 277.2C711.3 278 675.7 287 640 291.5C604.3 296 568.7 296 533.2 278C497.7 260 462.3 224 426.8 210.5C391.3 197 355.7 206 320 213.2C284.3 220.3 248.7 225.7 213.2 221.2C177.7 216.7 142.3 202.3 106.8 203.3C71.3 204.3 35.7 220.7 17.8 228.8L0 237Z" fill="#85554b"></path><path d="M0 465L17.8 456C35.7 447 71.3 429 106.8 422.8C142.3 416.7 177.7 422.3 213.2 433.2C248.7 444 284.3 460 320 467.2C355.7 474.3 391.3 472.7 426.8 472.7C462.3 472.7 497.7 474.3 533.2 472.5C568.7 470.7 604.3 465.3 640 466.3C675.7 467.3 711.3 474.7 746.8 479.2C782.3 483.7 817.7 485.3 853.2 476.3C888.7 467.3 924.3 447.7 942.2 437.8L960 428L960 339L942.2 348C924.3 357 888.7 375 853.2 388.5C817.7 402 782.3 411 746.8 410.2C711.3 409.3 675.7 398.7 640 395.2C604.3 391.7 568.7 395.3 533.2 402.5C497.7 409.7 462.3 420.3 426.8 426.5C391.3 432.7 355.7 434.3 320 426.2C284.3 418 248.7 400 213.2 384.8C177.7 369.7 142.3 357.3 106.8 364.7C71.3 372 35.7 399 17.8 412.5L0 426Z" fill="#75473d"></path><path d="M0 541L17.8 541C35.7 541 71.3 541 106.8 541C142.3 541 177.7 541 213.2 541C248.7 541 284.3 541 320 541C355.7 541 391.3 541 426.8 541C462.3 541 497.7 541 533.2 541C568.7 541 604.3 541 640 541C675.7 541 711.3 541 746.8 541C782.3 541 817.7 541 853.2 541C888.7 541 924.3 541 942.2 541L960 541L960 426L942.2 435.8C924.3 445.7 888.7 465.3 853.2 474.3C817.7 483.3 782.3 481.7 746.8 477.2C711.3 472.7 675.7 465.3 640 464.3C604.3 463.3 568.7 468.7 533.2 470.5C497.7 472.3 462.3 470.7 426.8 470.7C391.3 470.7 355.7 472.3 320 465.2C284.3 458 248.7 442 213.2 431.2C177.7 420.3 142.3 414.7 106.8 420.8C71.3 427 35.7 445 17.8 454L0 463Z" fill="#653930"></path></svg>