<svg id="visual" viewBox="0 0 960 540" width="960" height="540" xmlns="http://www.w3.org/2000/svg" xmlns:xlink="http://www.w3.org/1999/xlink" version="1.1"><rect x="0" y="0" width="960" height="540" fill="#c79286"></rect><path d="M0 117L22.8 115.5C45.7 114 91.3 111 137 108.5C182.7 106 228.3 104 274 109.7C319.7 115.3 365.3 128.7 411.2 130.3C457 132 503 122 548.8 120C594.7 118 640.3 124 686 120.7C731.7 117.3 777.3 104.7 823 106C868.7 107.3 914.3 122.7 937.2 130.3L960 138L960 0L937.2 0C914.3 0 868.7 0 823 0C777.3 0 731.7 0 686 0C640.3 0 594.7 0 548.8 0C503 0 457 0 411.2 0C365.3 0 319.7 0 274 0C228.3 0 182.7 0 137 0C91.3 0 45.7 0 22.8 0L0 0Z" fill="#a55c57"></path><path d="M0 80L22.8 82.2C45.7 84.3 91.3 88.7 137 92.7C182.7 96.7 228.3 100.3 274 97.2C319.7 94 365.3 84 411.2 79.7C457 75.3 503 76.7 548.8 80.5C594.7 84.3 640.3 90.7 686 94.5C731.7 98.3 777.3 99.7 823 97.7C868.7 95.7 914.3 90.3 937.2 87.7L960 85L960 0L937.2 0C914.3 0 868.7 0 823 0C777.3 0 731.7 0 686 0C640.3 0 594.7 0 548.8 0C503 0 457 0 411.2 0C365.3 0 319.7 0 274 0C228.3 0 182.7 0 137 0C91.3 0 45.7 0 22.8 0L0 0Z" fill="#824446"></path><path d="M0 67L22.8 68.8C45.7 70.7 91.3 74.3 137 76.3C182.7 78.3 228.3 78.7 274 76C319.7 73.3 365.3 67.7 411.2 69.7C457 71.7 503 81.3 548.8 82.3C594.7 83.3 640.3 75.7 686 71C731.7 66.3 777.3 64.7 823 63.2C868.7 61.7 914.3 60.3 937.2 59.7L960 59L960 0L937.2 0C914.3 0 868.7 0 823 0C777.3 0 731.7 0 686 0C640.3 0 594.7 0 548.8 0C503 0 457 0 411.2 0C365.3 0 319.7 0 274 0C228.3 0 182.7 0 137 0C91.3 0 45.7 0 22.8 0L0 0Z" fill="#5f2e35"></path><path d="M0 59L22.8 57.8C45.7 56.7 91.3 54.3 137 51.5C182.7 48.7 228.3 45.3 274 43.5C319.7 41.7 365.3 41.3 411.2 40.5C457 39.7 503 38.3 548.8 42.2C594.7 46 640.3 55 686 57.3C731.7 59.7 777.3 55.3 823 55.3C868.7 55.3 914.3 59.7 937.2 61.8L960 64L960 0L937.2 0C914.3 0 868.7 0 823 0C777.3 0 731.7 0 686 0C640.3 0 594.7 0 548.8 0C503 0 457 0 411.2 0C365.3 0 319.7 0 274 0C228.3 0 182.7 0 137 0C91.3 0 45.7 0 22.8 0L0 0Z" fill="#3e1a23"></path><path d="M0 18L22.8 19.8C45.7 21.7 91.3 25.3 137 28.2C182.7 31 228.3 33 274 30.7C319.7 28.3 365.3 21.7 411.2 18.5C457 15.3 503 15.7 548.8 19.5C594.7 23.3 640.3 30.7 686 34.2C731.7 37.7 777.3 37.3 823 33C868.7 28.7 914.3 20.3 937.2 16.2L960 12L960 0L937.2 0C914.3 0 868.7 0 823 0C777.3 0 731.7 0 686 0C640.3 0 594.7 0 548.8 0C503 0 457 0 411.2 0C365.3 0 319.7 0 274 0C228.3 0 182.7 0 137 0C91.3 0 45.7 0 22.8 0L0 0Z" fill="#21030f"></path></svg>